<?xml version="1.0" standalone="no"?>
<!DOCTYPE svg PUBLIC "-//W3C//DTD SVG 20010904//EN"
 "http://www.w3.org/TR/2001/REC-SVG-20010904/DTD/svg10.dtd">
<svg version="1.0" xmlns="http://www.w3.org/2000/svg"
 width="200.000000pt" height="200.000000pt" viewBox="0 0 200.000000 200.000000"
 preserveAspectRatio="xMidYMid meet">

<g transform="translate(0.000000,200.000000) scale(0.100000,-0.100000)"
fill="#000000" stroke="none">
<path d="M1650 1974 c0 -5 -5 -36 -10 -69 -17 -103 -17 -149 -3 -184 8 -18 17
-31 20 -28 3 3 7 35 9 70 2 36 10 97 17 136 8 39 10 71 6 71 -4 0 -14 3 -23 6
-9 3 -16 2 -16 -2z"/>
<path d="M1908 1970 c-9 -6 -19 -29 -23 -53 -8 -47 -62 -263 -72 -287 -3 -8
-7 -30 -9 -48 -4 -48 -73 -331 -90 -369 -8 -17 -14 -37 -14 -45 -1 -39 -63
-197 -110 -278 -12 -19 -33 -60 -48 -92 -18 -37 -40 -64 -65 -81 -28 -18 -33
-26 -22 -31 12 -4 13 -10 3 -31 -6 -14 -15 -25 -20 -25 -4 0 -8 -4 -8 -9 0
-11 -51 -68 -153 -173 -43 -44 -76 -82 -73 -85 18 -18 139 25 188 67 64 54
101 94 134 145 21 33 44 66 51 73 15 15 33 77 33 112 0 14 13 38 30 54 51 50
70 102 70 193 0 45 4 83 9 85 7 3 24 57 87 293 36 137 58 209 68 223 5 9 17
11 33 7 14 -3 40 -1 59 5 l34 12 0 174 0 174 -37 0 c-21 0 -45 -5 -55 -10z"/>
<path d="M1741 1614 c0 -11 3 -14 6 -6 3 7 2 16 -1 19 -3 4 -6 -2 -5 -13z"/>
<path d="M1711 1504 c0 -11 3 -14 6 -6 3 7 2 16 -1 19 -3 4 -6 -2 -5 -13z"/>
<path d="M1691 1394 c0 -11 3 -14 6 -6 3 7 2 16 -1 19 -3 4 -6 -2 -5 -13z"/>
<path d="M809 1278 c-129 -93 -279 -230 -279 -256 0 -10 5 -9 18 6 30 34 163
151 266 235 67 54 64 63 -5 15z"/>
<path d="M900 1181 c-152 -152 -259 -246 -317 -276 l-27 -14 48 -22 c46 -20
50 -20 90 -5 60 23 122 64 190 127 l59 54 -5 -42 c-3 -23 -19 -59 -34 -80
l-28 -38 43 40 c42 40 43 41 37 94 -5 52 -3 58 40 122 33 50 46 82 51 118 4
40 3 51 -8 50 -8 -1 -70 -58 -139 -128z"/>
<path d="M1651 1234 c0 -11 3 -14 6 -6 3 7 2 16 -1 19 -3 4 -6 -2 -5 -13z"/>
<path d="M1324 1076 c-66 -67 -161 -157 -211 -201 -50 -44 -95 -90 -101 -102
-9 -18 -7 -23 19 -33 42 -18 92 -1 166 54 77 58 141 126 197 210 46 69 78 169
60 185 -5 4 -62 -45 -130 -113z"/>
<path d="M1250 1181 c0 -5 -13 -14 -30 -21 -16 -7 -30 -15 -30 -19 0 -4 -12
-14 -28 -23 -15 -9 -39 -27 -53 -40 -14 -13 -52 -45 -84 -73 -57 -50 -104
-105 -88 -105 4 0 37 28 73 61 36 33 109 97 163 141 53 44 97 82 97 84 0 2 -4
4 -10 4 -5 0 -10 -4 -10 -9z"/>
<path d="M1572 1030 c-25 -24 -46 -63 -56 -103 -10 -40 7 -26 29 25 11 24 22
45 26 48 8 6 31 50 26 50 -2 0 -13 -9 -25 -20z"/>
<path d="M1351 840 c-1 -19 -54 -75 -154 -165 -43 -38 -97 -94 -119 -124 -68
-87 -244 -257 -390 -377 -26 -22 -78 -65 -117 -96 -79 -66 -90 -78 -64 -78 10
0 54 32 98 72 44 39 111 98 149 132 65 57 218 200 292 274 18 17 38 32 45 32
14 0 70 44 134 106 97 95 220 194 239 194 5 0 7 2 4 5 -7 8 -59 -16 -82 -37
-31 -28 -64 -20 -35 9 6 6 9 23 6 39 -2 16 -5 22 -6 14z"/>
<path d="M1390 705 c-11 -13 -8 -15 16 -15 20 0 25 3 15 9 -11 7 -11 9 0 14
10 4 10 6 -2 6 -9 1 -22 -6 -29 -14z"/>
<path d="M646 695 c-11 -8 -15 -15 -9 -15 6 0 16 7 23 15 16 19 11 19 -14 0z"/>
<path d="M585 642 c-12 -9 -27 -26 -35 -37 -8 -11 2 -4 23 15 20 19 37 36 37
38 0 5 -5 1 -25 -16z"/>
<path d="M494 558 l-29 -33 33 29 c30 28 37 36 29 36 -2 0 -16 -15 -33 -32z"/>
<path d="M408 482 c-25 -21 -52 -45 -60 -53 -8 -8 -37 -32 -64 -54 -49 -41
-169 -144 -233 -202 -20 -17 -34 -34 -31 -36 3 -3 31 18 62 46 114 104 190
171 216 190 15 12 47 40 72 63 25 24 56 52 70 63 14 11 23 20 20 21 -3 0 -26
-17 -52 -38z"/>
</g>
</svg>
